<?xml version="1.0" standalone="no"?>
<!DOCTYPE svg PUBLIC "-//W3C//DTD SVG 20010904//EN"
 "http://www.w3.org/TR/2001/REC-SVG-20010904/DTD/svg10.dtd">
<svg version="1.0" xmlns="http://www.w3.org/2000/svg"
 width="700.000000pt" height="700.000000pt" viewBox="0 0 700.000000 700.000000"
 preserveAspectRatio="xMidYMid meet">
<metadata>
Created by potrace 1.14, written by Peter Selinger 2001-2017
</metadata>
<g transform="translate(0.000000,700.000000) scale(0.100000,-0.100000)"
fill="#000000" stroke="none">
<path d="M4670 6900 c0 -5 14 -60 31 -122 17 -62 46 -171 65 -243 19 -71 43
-164 55 -205 11 -41 22 -82 24 -90 1 -8 30 -116 64 -239 33 -124 60 -225 58
-227 -1 -1 -114 -59 -252 -129 -645 -328 -783 -400 -779 -404 2 -2 30 -5 61
-7 60 -2 268 -13 383 -19 36 -2 123 -6 195 -10 71 -3 154 -8 185 -10 30 -2
116 -6 190 -10 74 -4 138 -9 142 -11 6 -4 12 -35 23 -114 5 -34 45 -288 51
-325 3 -16 7 -41 9 -55 9 -62 17 -109 25 -155 5 -27 12 -70 15 -95 3 -25 12
-83 20 -130 8 -47 17 -105 20 -130 8 -57 24 -143 28 -146 1 -1 31 73 65 164
35 92 67 176 72 187 5 11 20 49 34 85 13 36 63 164 109 285 46 121 97 253 112
293 l27 74 42 -5 c67 -9 310 -47 326 -52 8 -2 33 -6 55 -9 93 -12 127 -17 330
-52 17 -3 44 -7 60 -9 28 -3 70 -10 140 -21 133 -23 200 -33 202 -30 3 2 -221
186 -788 644 l-117 94 58 112 c31 61 127 248 212 416 86 168 180 353 210 412
60 117 61 117 -42 48 -30 -20 -80 -53 -110 -73 -30 -19 -218 -141 -418 -270
l-363 -236 -415 415 c-228 228 -414 410 -414 404z m884 -1035 c143 95 369 240
378 244 5 1 -47 -108 -117 -245 -69 -136 -122 -251 -118 -255 4 -4 96 -78 203
-164 237 -191 235 -189 195 -181 -16 3 -46 8 -65 11 -19 3 -46 8 -60 10 -14 3
-41 7 -60 10 -19 2 -62 8 -95 14 -33 5 -78 12 -100 16 -35 5 -57 8 -126 21
-17 3 -31 -26 -99 -206 -18 -47 -38 -98 -45 -115 -7 -16 -25 -64 -40 -105 -27
-74 -45 -106 -45 -82 0 7 -7 58 -16 115 -8 56 -17 113 -19 127 -2 14 -6 39 -9
55 -3 17 -8 50 -11 75 -3 25 -8 52 -10 60 -3 8 -7 35 -10 60 -3 24 -7 45 -8
46 -1 1 -47 5 -102 8 -248 14 -354 19 -402 20 -29 1 -49 4 -45 8 8 8 85 48
360 187 67 34 122 68 122 75 0 7 -9 46 -19 87 -30 116 -108 405 -117 431 -4
13 82 -66 196 -179 l202 -201 82 53z"/>
<path d="M2266 6017 c-77 -287 -149 -558 -161 -602 -39 -142 -73 -266 -121
-449 l-48 -178 -161 7 c-88 4 -182 8 -210 10 -27 1 -113 6 -190 9 -77 4 -167
9 -200 11 -33 2 -114 7 -180 10 -66 3 -149 8 -185 10 -36 2 -128 6 -205 10
-77 3 -169 8 -205 10 -36 2 -114 7 -175 10 l-110 5 65 -42 c36 -23 124 -80
195 -126 72 -47 258 -168 415 -270 157 -102 335 -217 395 -257 61 -39 182
-118 270 -175 88 -56 166 -108 174 -115 11 -11 -6 -62 -99 -306 -61 -162 -118
-307 -125 -324 -7 -16 -26 -66 -43 -110 -119 -314 -326 -856 -338 -882 -8 -17
-14 -37 -14 -45 0 -8 -5 -19 -12 -26 -46 -46 40 20 304 234 166 135 319 259
338 274 218 176 748 605 757 612 9 7 35 -8 90 -54 61 -50 336 -273 411 -333 7
-5 18 -15 25 -20 22 -19 789 -640 842 -682 53 -42 53 -42 45 -14 -4 16 -14 39
-21 52 -7 13 -12 25 -11 26 1 2 -1 11 -5 20 -13 37 -64 169 -72 188 -5 11 -60
153 -121 315 -62 162 -127 333 -145 380 -61 157 -254 665 -257 677 -2 6 303
210 677 453 374 243 706 459 738 481 32 21 61 39 66 39 5 0 14 7 21 14 10 13
1 14 -62 11 -40 -2 -127 -7 -193 -10 -66 -3 -156 -8 -200 -10 -44 -3 -129 -7
-190 -10 -60 -3 -141 -7 -180 -10 -38 -2 -128 -7 -200 -10 -71 -3 -159 -8
-195 -10 -36 -2 -123 -7 -195 -10 -71 -4 -150 -8 -175 -10 -133 -10 -204 -8
-212 6 -4 8 -34 115 -67 239 -33 124 -65 245 -72 270 -7 25 -13 50 -15 55 -3
14 -71 272 -84 315 -28 99 -71 259 -165 615 -44 168 -66 245 -68 245 -1 0 -65
-235 -141 -523z m198 -493 c72 -262 136 -501 146 -544 4 -19 31 -119 59 -222
28 -103 51 -190 51 -193 0 -3 3 -4 8 -2 4 3 77 8 162 12 173 8 225 10 385 19
154 9 250 14 395 21 69 3 153 8 188 11 34 3 62 3 62 0 0 -2 -37 -28 -82 -57
-46 -29 -155 -100 -243 -157 -88 -58 -182 -119 -210 -137 -27 -18 -122 -79
-210 -137 -88 -57 -181 -117 -207 -133 -27 -17 -48 -34 -48 -38 0 -4 43 -121
96 -260 53 -139 130 -337 169 -442 40 -104 93 -242 118 -306 l44 -117 -181
146 c-100 80 -183 149 -186 152 -3 3 -95 77 -205 165 -110 88 -202 162 -205
165 -3 3 -40 34 -82 68 -69 56 -80 62 -96 50 -25 -19 -216 -172 -222 -178 -3
-4 -111 -91 -240 -195 -129 -104 -260 -210 -290 -235 -31 -25 -71 -56 -89 -70
-18 -14 -41 -34 -52 -44 -10 -11 -21 -18 -23 -15 -3 3 287 774 315 834 5 11
27 70 49 130 22 61 45 118 50 128 6 10 8 22 5 26 -2 5 -70 51 -150 102 -295
191 -490 318 -501 327 -5 5 -21 15 -33 21 -13 7 -91 58 -174 113 l-152 100 75
-6 c41 -3 134 -8 205 -12 72 -3 157 -7 190 -9 33 -2 121 -6 195 -10 74 -4 158
-8 185 -10 28 -2 120 -6 206 -10 l156 -7 5 23 c3 13 26 101 51 194 69 255 78
289 82 305 1 8 26 101 55 205 28 105 66 245 83 312 17 67 32 121 34 119 1 -1
27 -92 57 -202z"/>
<path d="M5672 3028 c-9 -12 -26 -42 -74 -128 -11 -19 -27 -48 -37 -65 -10
-16 -114 -196 -231 -400 -117 -203 -218 -377 -224 -386 -10 -14 -22 -13 -116
18 -58 19 -166 54 -240 78 -74 24 -276 89 -448 145 -173 56 -315 100 -317 98
-2 -2 20 -28 48 -58 29 -30 109 -118 177 -195 69 -77 127 -142 130 -145 3 -3
45 -50 95 -105 49 -55 96 -107 105 -116 8 -9 44 -49 80 -89 36 -41 82 -92 102
-114 21 -23 38 -44 38 -47 0 -5 -107 -155 -347 -484 -12 -16 -67 -93 -123
-170 -56 -77 -110 -151 -120 -165 -44 -58 -89 -124 -86 -127 2 -2 585 255 916
404 25 12 66 30 92 42 26 11 51 21 55 20 4 0 55 -66 113 -146 58 -80 134 -185
170 -234 36 -49 101 -139 145 -200 44 -60 94 -129 111 -152 17 -23 59 -80 93
-127 l62 -85 -6 70 c-3 39 -10 108 -15 155 -5 47 -12 110 -15 140 -3 30 -7 71
-10 90 -2 19 -7 62 -10 95 -3 33 -7 76 -10 95 -2 19 -7 62 -10 95 -7 67 -11
113 -20 195 -4 30 -8 75 -10 100 -3 25 -7 64 -10 88 -5 37 -3 43 17 52 13 5
183 61 378 124 646 210 715 233 700 239 -8 3 -157 35 -330 72 -173 36 -389 82
-480 101 -91 20 -176 38 -190 40 -81 14 -130 29 -130 38 0 6 -1 269 -2 584 -1
314 -2 572 -4 572 -1 0 -6 -6 -12 -12z m-194 -1020 c0 -139 1 -265 1 -279 1
-24 6 -27 84 -43 45 -9 143 -30 218 -46 75 -16 145 -31 155 -33 107 -20 119
-13 -170 -107 -147 -49 -269 -90 -270 -91 -2 -2 0 -34 5 -72 5 -37 10 -93 13
-125 3 -31 7 -73 10 -92 3 -19 8 -62 11 -95 3 -33 8 -84 11 -112 3 -29 4 -53
2 -53 -3 0 -76 99 -164 220 -87 121 -163 220 -168 220 -4 0 -106 -43 -225 -96
-119 -53 -231 -103 -250 -111 l-34 -15 18 29 c10 15 25 37 35 48 9 11 52 70
95 130 44 61 83 111 87 113 4 2 8 8 8 13 0 6 18 34 40 63 39 52 47 71 33 78
-5 2 -46 46 -93 98 -95 106 -143 159 -218 240 -28 30 -49 56 -47 58 3 3 155
-45 439 -139 49 -16 90 -28 91 -27 4 5 188 323 213 368 34 61 63 110 66 110 2
0 3 -114 4 -252z"/>
</g>
</svg>
