<?xml version="1.0" encoding="UTF-8"?>
<svg id="Layer_1" data-name="Layer 1" xmlns="http://www.w3.org/2000/svg" viewBox="0 0 200 200">
  <defs>
    <style>
      .cls-1 {
        fill: #101a2e;
      }
    </style>
  </defs>
  <g class="path">
    <path class="cls-1" d="M145.74,29.78c-12.21-12.22-28.46-18.96-45.75-18.96-35.68,0-64.7,29.03-64.7,64.71v114.7H164.7V75.53c0-17.28-6.73-33.53-18.96-45.75Zm-21.1,154.45h-48.97V97.13c0-13.49,10.98-24.48,24.48-24.48,6.54,0,12.69,2.55,17.32,7.17,4.62,4.63,7.17,10.78,7.17,17.31v87.1Zm6,0V97.13c0-8.14-3.17-15.79-8.93-21.55-5.76-5.76-13.41-8.93-21.56-8.93-16.81,0-30.48,13.68-30.48,30.48v87.1h-9.48V83.17c0-21.71,17.67-39.38,39.38-39.38,10.52,0,20.41,4.1,27.85,11.54,7.44,7.43,11.54,17.32,11.54,27.84v101.06h-8.32Zm28.06,0h-13.74V83.17c0-12.13-4.72-23.52-13.3-32.09-8.57-8.57-19.97-13.29-32.09-13.29-25.02,0-45.38,20.36-45.38,45.38v101.06h-12.9V75.53c0-32.37,26.33-58.71,58.7-58.71,15.69,0,30.43,6.11,41.51,17.21,11.09,11.08,17.2,25.82,17.2,41.5v108.7Z"/>
  </g>
</svg>