<?xml version="1.0" encoding="UTF-8"?>
<svg id="Layer_1" data-name="Layer 1" xmlns="http://www.w3.org/2000/svg" viewBox="0 0 200 200">
  <defs>
    <style>
      .cls-1 {
        fill: #101a2e;
      }
    </style>
  </defs>
  <g class="path">
    <path class="cls-1" d="M180.07,90.68c-3.63-4.33-9.18-6.81-15.24-6.81h-17.71l24.39-45.96c2.27-4.27,2.14-9.9-.33-14.01-1.78-2.96-4.53-4.65-7.55-4.65h-12.2c-4.48,0-8.61,2.86-11.05,7.65l-28.98,56.97h-22.8L59.63,26.9c-2.44-4.79-6.57-7.65-11.05-7.65h-12.21c-3.01,0-5.76,1.69-7.54,4.65-2.47,4.11-2.61,9.74-.34,14.01l24.4,45.96h-17.72c-6.09,0-11.66,2.51-15.29,6.88-3.1,3.74-4.33,8.33-3.47,12.94l12.74,67.77c1.55,8.21,9.44,14.17,18.76,14.17h104.89c9.42,0,17.32-6.02,18.79-14.32l12.03-67.77c.81-4.59-.45-9.16-3.55-12.86Zm-34.34-61.06c1.39-2.74,3.52-4.37,5.7-4.37h12.2c1.18,0,2.01,1.09,2.41,1.74,1.18,1.97,1.62,5.39,.18,8.11l-25.89,48.77h-22.2l27.6-54.25Zm-111.94,5.48c-1.44-2.72-1-6.14,.18-8.11,.39-.65,1.23-1.74,2.4-1.74h12.21c2.18,0,4.31,1.63,5.7,4.37l27.6,54.25h-22.2l-25.89-48.77ZM177.71,102.49l-12.03,67.77c-.95,5.34-6.48,9.37-12.88,9.37H47.91c-6.44,0-11.85-3.9-12.86-9.28l-12.74-67.77c-.53-2.82,.25-5.66,2.19-8,2.45-2.95,6.44-4.71,10.67-4.71H164.83c4.22,0,8.19,1.74,10.64,4.66,1.94,2.32,2.74,5.15,2.24,7.96Z"/>
    <path class="cls-1" d="M64.56,167.71h-4.13c-7.06,0-12.81-5.75-12.81-12.81v-42.15c0-7.06,5.75-12.81,12.81-12.81h4.13c7.06,0,12.81,5.74,12.81,12.81v42.15c0,7.06-5.75,12.81-12.81,12.81Zm-4.13-61.76c-3.75,0-6.81,3.05-6.81,6.81v42.15c0,3.75,3.05,6.81,6.81,6.81h4.13c3.75,0,6.81-3.05,6.81-6.81v-42.15c0-3.75-3.05-6.81-6.81-6.81h-4.13Z"/>
    <path class="cls-1" d="M103.01,167.71h-4.13c-7.06,0-12.81-5.75-12.81-12.81v-42.15c0-7.06,5.74-12.81,12.81-12.81h4.13c7.06,0,12.81,5.74,12.81,12.81v42.15c0,7.06-5.74,12.81-12.81,12.81Zm-4.13-61.76c-3.75,0-6.81,3.05-6.81,6.81v42.15c0,3.75,3.05,6.81,6.81,6.81h4.13c3.75,0,6.81-3.05,6.81-6.81v-42.15c0-3.75-3.05-6.81-6.81-6.81h-4.13Z"/>
    <path class="cls-1" d="M141.46,167.71h-4.13c-7.06,0-12.81-5.75-12.81-12.81v-42.15c0-7.06,5.75-12.81,12.81-12.81h4.13c7.06,0,12.81,5.74,12.81,12.81v42.15c0,7.06-5.75,12.81-12.81,12.81Zm-4.13-61.76c-3.75,0-6.81,3.05-6.81,6.81v42.15c0,3.75,3.05,6.81,6.81,6.81h4.13c3.75,0,6.81-3.05,6.81-6.81v-42.15c0-3.75-3.05-6.81-6.81-6.81h-4.13Z"/>
  </g>
</svg>