<?xml version="1.0" encoding="UTF-8"?>
<svg id="Layer_1" data-name="Layer 1" xmlns="http://www.w3.org/2000/svg" viewBox="0 0 200 200">
  <defs>
    <style>
      .cls-1 {
        fill: #101a2e;
      }
    </style>
  </defs>
  <g class="path">
    <path class="cls-1" d="M99.66,135.9v-.03"/>
    <path class="cls-1" d="M134.22,78.45l2.81,5.56c-3.13,2.48-5.84,5.52-8.01,9.02-4.96,7.98-6.51,17.4-4.38,26.55,2.14,9.14,7.71,16.91,15.69,21.86,5.64,3.51,12,5.31,18.48,5.31,2.69,0,5.39-.31,8.07-.94,16.2-3.78,27.16-18.26,27.16-34.22,0-2.65-.3-5.33-.93-8.01-2.13-9.14-7.7-16.91-15.68-21.86-7.98-4.96-17.41-6.51-26.55-4.37-3.12,.73-6.08,1.85-8.81,3.35l-18.34-36.25,13.87-3.24c1.62-.38,2.62-1.99,2.24-3.61-.38-1.61-1.99-2.61-3.6-2.23l-21.31,4.98,10.53,20.81-55.54,12.77-4.78-9.96,13.95-3.26c1.61-.37,2.61-1.99,2.23-3.6-.37-1.62-1.99-2.62-3.6-2.24l-30.66,7.16c-1.61,.38-2.61,1.99-2.24,3.61,.33,1.38,1.56,2.32,2.92,2.32,.23,0,.46-.03,.69-.08l10.72-2.51,5.8,12.07-12.34,27.76c-6.22-2.17-12.93-2.54-19.5-1-9.14,2.13-16.91,7.7-21.86,15.68-4.96,7.98-6.51,17.41-4.37,26.55,2.14,9.14,7.7,16.91,15.68,21.86,5.64,3.51,12.01,5.31,18.49,5.31,2.68,0,5.38-.31,8.06-.94,9.15-2.13,16.91-7.7,21.87-15.68,3.11-5.01,4.88-10.59,5.23-16.32l20.67-.46,37.34-61.75ZM55.64,113.14c.29,.17,.57,.34,.86,.52,3.3,2.06,6.11,4.69,8.32,7.76,2.2,3.08,3.8,6.58,4.68,10.38,.23,.99,.41,1.99,.54,2.99l-24.27,.54,9.87-22.19Zm10.24,40.67c-4.11,6.62-10.55,11.24-18.13,13.01-7.59,1.77-15.41,.49-22.02-3.62-6.62-4.11-11.24-10.55-13.01-18.14-1.77-7.58-.48-15.4,3.63-22.01,4.1-6.62,10.54-11.24,18.13-13.01,2.22-.52,4.46-.78,6.69-.78,3.06,0,6.09,.49,8.99,1.44l-11.79,26.51,2.81,4.22,29-.64c-.36,4.56-1.81,9.02-4.3,13.02Zm10.19-19.15c-.15-1.41-.39-2.83-.72-4.23-2.14-9.14-7.71-16.91-15.69-21.86-.52-.32-1.04-.63-1.57-.93l10.27-23.09,23.88,49.75-16.17,.36Zm20.47-5.26l-23.96-49.92,55.67-12.81,2.77,5.47-34.48,57.26Zm68.97,10.57c-7.58,1.77-15.4,.49-22.02-3.62-6.61-4.11-11.23-10.55-13-18.14-1.77-7.58-.49-15.4,3.62-22.02,1.58-2.54,3.5-4.79,5.7-6.68l1.04,2.05,16.02,23.73c.58,.86,1.52,1.32,2.49,1.32,.57,0,1.16-.17,1.67-.51,1.38-.93,1.74-2.8,.81-4.17l-15.73-23.25-1.33-2.63c2.31-1.28,4.82-2.24,7.46-2.86,2.23-.52,4.47-.78,6.69-.78,5.38,0,10.66,1.5,15.33,4.4,3.31,2.05,6.12,4.69,8.32,7.76,2.21,3.07,3.8,6.58,4.69,10.37,3.66,15.66-6.1,31.37-21.76,35.03Z"/>
  </g>
</svg>