<?xml version="1.0" encoding="UTF-8"?>
<svg id="Layer_1" data-name="Layer 1" xmlns="http://www.w3.org/2000/svg" viewBox="0 0 200 200">
  <defs>
    <style>
      .cls-1 {
        fill: #101a2e;
      }
    </style>
  </defs>
  <g class="path">
    <path class="cls-1" d="M149.03,191.67H50.97c-10.15,0-19.77-3.91-27.08-11.02-16.49-16.02-11.78-47.11-4.23-78.32l.62-2.54,2.61,.27c19.18,1.97,24.53,17.34,28.44,28.57,1.17,3.37,2.3,6.61,3.63,9.02,14.81-10.01,11.87-26.43,8.2-46.95-5.06-28.26-11.35-63.43,35.92-87.68l1.37-.7,1.37,.7c47.28,24.26,40.69,59.44,35.38,87.7-3.85,20.52-6.93,36.93,7.85,46.93,1.33-2.42,2.45-5.65,3.63-9.02,3.91-11.23,9.26-26.6,28.44-28.57l2.61-.27,.62,2.54c7.55,31.21,12.27,62.3-4.23,78.32-7.31,7.1-16.93,11.02-27.08,11.02ZM24.86,106.4c-6.76,28.57-10.69,56.44,3.21,69.94,6.19,6.01,14.32,9.32,22.9,9.32h98.06c8.58,0,16.71-3.31,22.9-9.32,13.9-13.5,9.97-41.38,3.21-69.95-13.27,2.56-17.09,13.55-20.8,24.19-1.75,5.04-3.41,9.8-6.11,13.04l-1.6,1.92-2.18-1.23c-21.19-11.93-17.29-32.72-13.16-54.72,5.39-28.71,10.96-58.4-30.85-80.54-41.83,22.15-36.53,51.85-31.39,80.57,3.93,21.99,7.65,42.76-13.52,54.69l-2.18,1.23-1.6-1.92c-2.69-3.23-4.35-7.99-6.11-13.04-3.71-10.64-7.53-21.63-20.8-24.19Z"/>
    <path class="cls-1" d="M118.24,178.14h-36.42c-3.95,0-7.81-2.44-9.61-6.07-1.56-3.15-1.28-6.62,.75-9.28,10.65-13.97,11.53-32.06,12.31-48.03,.79-16.24,1.53-31.57,13.06-38.46l1.32-.79,1.41,.61c9.76,4.24,11.09,18.25,12.78,36,1.63,17.14,3.48,36.57,13.37,50.84,1.92,2.76,2.09,6.27,.46,9.38-1.84,3.52-5.54,5.79-9.43,5.79Zm-18.23-95.73c-7.44,5.76-8.05,18.28-8.75,32.65-.82,16.84-1.74,35.93-13.53,51.38-.81,1.06-.52,2.2-.14,2.98,.79,1.61,2.54,2.73,4.23,2.73h36.42c1.91,0,3.45-1.29,4.12-2.57,.42-.8,.75-2-.07-3.18-10.79-15.56-12.8-36.7-14.42-53.69-1.33-14.05-2.5-26.33-7.86-30.29Z"/>
  </g>
</svg>