<?xml version="1.0" encoding="UTF-8"?>
<svg id="Layer_1" data-name="Layer 1" xmlns="http://www.w3.org/2000/svg" viewBox="0 0 200 200">
  <defs>
    <style>
      .cls-1 {
        fill: #101a2e;
      }
    </style>
  </defs>
  <g class="path">
    <path class="cls-1" d="M114.28,102.86c-.06,.21-.12,.41-.19,.62l-.51-.16c.24-.16,.47-.31,.7-.46Z"/>
    <path class="cls-1" d="M114.28,102.86c-.06,.21-.12,.41-.19,.62l-.51-.16c.24-.16,.47-.31,.7-.46Z"/>
    <path class="cls-1" d="M157.06,17.26l-.73-1.85-1.98-.05c-.69-.02-17.03-.38-36.69,5.31-26.25,7.6-45.69,22.49-56.22,43.05-25.26,49.3-1.93,91.93-.92,93.72l.31-.18c-15.1,14.06-26.22,21.71-26.51,21.91l3.36,4.97c.62-.43,12.33-8.41,28.15-23.22,9.62-.61,72.82-6.15,92.23-46.18,20.41-42.1-.12-95.24-1-97.48Zm-4.4,94.86c-15.01,30.97-60.88,39.74-79.87,42.09,2.38-2.36,4.82-4.86,7.31-7.49,.85-.9,1.71-1.81,2.57-2.76,.12-.12,.23-.24,.34-.37,6.48-7.02,13.48-15.3,20.46-24.68,0-.01,0-.01,0-.02,21.18-20,46.41-24.72,46.92-24.82h.01l-.52-2.95-.52-2.96c-.86,.16-16.89,3.07-34.61,14.39,10.93-17.07,20.96-36.9,27.66-58.98l-5.75-1.74c-4.76,15.71-11.27,30.31-18.7,43.67,2.95-25.8-6.21-43.33-6.69-44.22l-5.29,2.83c.13,.24,12.66,24.42,2.57,56.94,0,.01-.01,.01-.01,.02-6.8,10.43-14.04,19.93-21.22,28.43,1.55-18.81-4.43-47.27-5.33-51.42l-5.86,1.27c4.13,19.02,8.36,51.06,2.94,59.52-4.82,5.26-9.53,10.05-13.98,14.36-3.56-7.28-19.78-44.88,1.68-86.78,21.24-41.47,74.37-44.84,85.39-45.08,3.44,9.81,17.68,55.31,.49,90.75Zm-38.38-9.26c-.06,.21-.12,.41-.19,.62l-.51-.16c.24-.16,.47-.31,.7-.46Z"/>
    <path class="cls-1" d="M114.28,102.86c-.06,.21-.12,.41-.19,.62l-.51-.16c.24-.16,.47-.31,.7-.46Z"/>
  </g>
</svg>