<?xml version="1.0" encoding="UTF-8"?>
<svg id="Layer_1" data-name="Layer 1" xmlns="http://www.w3.org/2000/svg" viewBox="0 0 200 200">
  <defs>
    <style>
      .cls-1 {
        fill: #101a2e;
      }
    </style>
  </defs>
  <g class="path">
   <path class="cls-1" d="M188.41,91.59C188.41,42.83,148.75,3.17,100,3.17S11.58,42.83,11.58,91.59c0,26.28,11.53,49.92,29.79,66.13l-5.64,35.64,5.93,.94,5.09-32.18c14.82,11.23,33.27,17.89,53.25,17.89,23.42,0,44.73-9.15,60.56-24.07l8.69,35.37,5.83-1.43-9.57-38.97c14.23-15.7,22.9-36.52,22.9-59.32Zm-42.88-22.04c-.58-2.33-2.56-3.95-4.93-4.04-2.33-.07-4.4,1.37-5.12,3.62-3.38,10.47-6.8,25.44-3.89,37.29,4.06,16.52,23.53,38.16,27.14,42.07l.17,.68c-14.96,15.32-35.84,24.84-58.9,24.84-19.78,0-37.96-7-52.18-18.67l6.6-41.75,2.38,.38c.56,.09,1.13,.13,1.69,.13,6.85,0,13.03-6.56,14.49-15.76l4.37-27.62-5.93-.93-4.37,27.61c-1.01,6.41-5.27,11.29-9.31,10.64l-2.38-.38,6.23-39.43-5.92-.93-6.24,39.43-2.38-.38c-2.41-.38-3.82-2.58-4.45-3.85-1.24-2.52-1.65-5.85-1.13-9.14l4.37-27.62-5.92-.93-4.37,27.61c-.72,4.55-.13,9.07,1.67,12.72,1.93,3.95,5.18,6.55,8.9,7.14l2.38,.38-6,37.91c-15.37-14.96-24.92-35.88-24.92-58.98C17.58,46.14,54.55,9.17,100,9.17s82.41,36.97,82.41,82.42c0,19.78-7,37.95-18.66,52.17l-18.22-74.21Zm10.04,66.06c-6.78-8.37-15.74-20.79-18.15-30.62-2.43-9.9,.46-22.99,2.93-31.34l15.22,61.96Z"/>
  </g>
</svg>