<?xml version="1.0" encoding="UTF-8"?>
<svg id="Layer_1" data-name="Layer 1" xmlns="http://www.w3.org/2000/svg" viewBox="0 0 200 200">
  <defs>
    <style>
      .cls-1 {
        fill: #101a2e;
      }
    </style>
  </defs>
  <g class="path">
    <path class="cls-1" d="M37.05,181.46l5.46-10.62c6.37-12.34,11.44-22.17,12.08-33.89-13.17-13.85-20.4-31.94-20.4-51.11,0-40.92,33.3-74.22,74.23-74.22s74.22,33.29,74.22,74.22-33.29,74.23-74.22,74.23c-7.81,0-15.49-1.21-22.85-3.58l-48.52,24.98ZM108.42,17.62c-37.62,0-68.23,30.6-68.23,68.22,0,18.02,6.96,35.01,19.59,47.85l.9,.91-.03,1.28c-.31,11.49-4.44,21.21-9.71,31.7l34.15-17.58,1.21,.41c7.1,2.43,14.55,3.67,22.13,3.67,37.62,0,68.22-30.61,68.22-68.23S146.03,17.62,108.42,17.62Z"/>
  </g>
</svg>