<?xml version="1.0" encoding="UTF-8"?>
<svg id="Layer_1" data-name="Layer 1" xmlns="http://www.w3.org/2000/svg" viewBox="0 0 200 200">
  <defs>
    <style>
      .cls-1 {
        fill: #101a2e;
      }
    </style>
  </defs>
  <g class="path">
    <path class="cls-1" d="M28.32,137.57l18.65-48.62L3.3,60.57l52,2.71,13.49-50.3,13.49,50.3,52-2.71-43.67,28.38,18.65,48.62-40.48-32.76-40.48,32.76Zm40.48-40.48l26.87,21.75-12.38-32.27,28.98-18.83-34.52,1.8-8.96-33.39-8.96,33.39-34.52-1.8,28.98,18.83-12.38,32.27,26.87-21.75Z"/>
    <path class="cls-1" d="M166.96,197.4l-19.83-27.24-30.78,13.72,19.78-27.28-22.56-25.03,32.06,10.38,16.84-29.19,.04,33.7,32.96,6.99-32.04,10.45,3.54,33.51Zm-17.84-34.7l9.53,13.09-1.7-16.1,15.39-5.02-15.83-3.36-.02-16.19-8.09,14.02-15.4-4.99,10.84,12.03-9.5,13.11,14.79-6.59Z"/>
    <path class="cls-1" d="M150.89,85.36l-5.28-33.28-33.65-1.77,30.02-15.31L133.27,2.44l23.83,23.82,28.27-18.34-15.29,30.03,26.18,21.21-33.28-5.26-12.08,31.46Zm-16.28-39.87l16.17,.85,2.54,15.99,5.81-15.11,15.99,2.53-12.58-10.19,7.34-14.43-13.58,8.81-11.45-11.44,4.18,15.64-14.42,7.35Z"/>
  </g>
</svg>