<?xml version="1.0" encoding="UTF-8"?>
<svg id="Layer_1" data-name="Layer 1" xmlns="http://www.w3.org/2000/svg" viewBox="0 0 200 200">
  <defs>
    <style>
      .cls-1 {
        fill: #101a2e;
      }
    </style>
  </defs>
  <g class="path">
    <path class="cls-1" d="M188.08,99.65L145.71,26.25,159.76-.03l-5.29-2.83-14.72,27.55H58.2L38.92-7.6l-5.16,3.07L53.22,28.08,12.1,99.31H-3.76v6H12.1l40.29,69.79-18.59,29.36,5.07,3.21,17.56-27.74h83.32l14.72,27.55,5.29-2.83-14.05-26.28,41.99-72.73,16.03,.1,.04-6-15.69-.09ZM136.54,30.69l-4.77,8.92H67.1l-5.32-8.92h74.76Zm-22,41.16h-28.19l-5.44-9.11h38.5l-4.87,9.11Zm14.2,30.46l-14.12,24.46h-28.25l-14.12-24.46,14.12-24.46h28.25l14.12,24.46Zm-47.58-27.43l-14.11,24.43h-10.76l19.4-33.6,5.47,9.17Zm-14.11,30.43l14.08,24.39-5.89,9.3-19.45-33.69h11.26Zm19.23,27.46h28.27l5.33,9.97h-39.91l6.31-9.97Zm33.5-2.94l14.15-24.51,11.22,.07-19.96,34.58-5.41-10.14Zm14.16-30.51l-14.16-24.53,5.17-9.69,19.79,34.29-10.8-.07Zm-11.32-42.58h-45.29l-6.65-11.13h57.89l-5.95,11.13Zm-50.45,3.07l-22.81,39.5h-13.1l29.24-50.66,6.67,11.16Zm-23.31,45.5l22.76,39.41-6.59,10.41-28.77-49.82h12.6Zm27.31,43.43h46.91l5.49,10.26h-58.89l6.49-10.26Zm52.35-2.55l23.54-40.76,11.56,.07-29.52,51.13-5.58-10.44Zm23.18-46.76l-23.42-40.56,5.82-10.89,29.74,51.52-12.14-.07ZM56.75,33.98l5.23,8.78L29.33,99.31h-10.3L56.75,33.98Zm-.73,135.39L19.03,105.31h10.3l32.08,55.55-5.39,8.51Zm4.21,4.56l5.65-8.93h65.89l4.77,8.93H60.23Zm82.15-1.8l-4.95-9.27,33.09-57.32,10.27,.06-38.41,66.53Zm28.41-72.59l-33.36-57.78,4.95-9.27,38.75,67.11-10.34-.06Z"/>
  </g>
</svg>