<?xml version="1.0" encoding="UTF-8"?>
<svg id="thin_logo" data-name="Layer 1" xmlns="http://www.w3.org/2000/svg" viewBox="0 0 1275.1 947.23">
  <defs>
    <style>
      .cls-1 {
        fill: #101a2e;
      }
    </style>
  </defs>
  <g>
    <path class="cls-1" d="M121.75,463.65c0,7.2,2.6,9.66,7.74,9.66,3.33,0,5.45-.64,6.76-1.05v7.54c-1.62,.57-4.32,1.28-7.87,1.28-9.31,0-15.51-3.85-15.51-17.08v-89.72h8.89v89.38Z"/>
    <path class="cls-1" d="M224.47,441.93c0,22.46-16.17,39.45-37.51,39.45s-36.84-16.46-36.84-39.19,16.09-39.52,37.49-39.52,36.86,16.79,36.86,39.26Zm-9.03,.02c0-17.56-10.82-30.94-28.08-30.94s-28.2,13.76-28.2,31.19,10.79,30.85,28.07,30.85,28.21-13.29,28.21-31.1Z"/>
    <path class="cls-1" d="M301.48,416.9c-5.24-3.61-11.59-6.08-20.48-6.08-18.63,0-28.17,14.51-28.17,31.33s9.9,30.99,27.8,30.99c10.11,0,16.11-3.96,20.41-7.37l4.14,7.05c-5.88,4.77-13.97,8.55-24.55,8.55-21.14,0-36.84-14.27-36.84-39.23s16.33-39.48,37.19-39.48c9.42,0,16.99,2.72,22.35,6.43l-1.85,7.79Z"/>
    <path class="cls-1" d="M375.07,481.24c-1.72-2.63-3.74-7.75-4.08-13.95-4.21,6.49-12.01,14.1-25.43,14.1-14.67,0-24.84-8.57-24.84-22.35s11-22.15,30.76-22.15h19.51v-6.72c0-13.91-8.8-19.16-22.02-19.16-7.23,0-13.85,1.33-21.71,4.89l-1.95-7.9c6.22-3.11,14.42-5.33,24.32-5.33,16.51,0,30.12,7.03,30.12,28.06v31.55c0,9.24,2.02,13.43,3.8,16.79l-8.49,2.16Zm-4.2-23.07v-14.2s-19.36,.06-19.36,.06c-16.03,.05-21.66,6.16-21.66,14.82,0,9.29,6.63,14.67,17.36,14.67,14.46,0,21.53-10.28,23.67-15.35Z"/>
    <path class="cls-1" d="M417.27,463.65c0,7.2,2.6,9.66,7.74,9.66,3.33,0,5.45-.64,6.76-1.05v7.54c-1.62,.57-4.32,1.28-7.87,1.28-9.31,0-15.51-3.85-15.51-17.08v-89.72h8.89v89.38Z"/>
    <path class="cls-1" d="M540.97,408.07l-1.84,7.82c-5.56-2.91-12.09-5.26-21.63-5.26-11.65,0-18.84,4.93-18.84,12.5,0,8.77,8.62,11.01,19.55,13.38,14.08,3.07,25.84,7.09,25.84,23.09,0,13.98-11.02,21.78-29.08,21.78-12.07,0-21.43-4.01-27.19-8.54l3.59-7.33c4.32,3.42,11.5,7.91,23.7,7.91,13.12,0,20.18-5.44,20.18-13.82,0-8.95-7.33-11.71-20.84-14.69-13.24-2.92-24.51-6.91-24.51-21.32,0-12.93,11.04-20.92,27.61-20.92,11.35,0,18.61,2.9,23.48,5.4Z"/>
    <path class="cls-1" d="M636.78,441.93c0,22.46-16.17,39.45-37.51,39.45s-36.84-16.46-36.84-39.19,16.09-39.52,37.49-39.52,36.86,16.79,36.86,39.26Zm-9.03,.02c0-17.56-10.82-30.94-28.08-30.94s-28.2,13.76-28.2,31.19,10.79,30.85,28.07,30.85,28.21-13.29,28.21-31.1Z"/>
    <path class="cls-1" d="M716.22,481.24c-1.89-3.23-3.27-8.29-3.69-13.54-4.4,7.03-12.78,13.95-25.46,13.95-18.05,0-27.09-11.4-27.09-29.73v-47.23h8.88v44.02c0,15.4,5.53,24.62,19.57,24.62s21.97-11.15,23.97-16.15v-52.48h8.88v57.59c0,9.25,1.98,13.43,3.49,16.79l-8.56,2.16Z"/>
    <path class="cls-1" d="M793.62,474.65c-3.2,3.02-8.72,6.73-17.64,6.73-12.94,0-22.38-7.83-22.38-24.22v-45.14h-12.31v-7.33h12.31v-17.99l8.89-2.12v20.11h25.45v7.33h-25.45v42.92c0,14.73,6.9,18.48,14.24,18.48,6.32,0,10.17-2.81,12.9-5.27l3.99,6.5Z"/>
    <path class="cls-1" d="M873.25,433.74v46.01h-8.88v-43.8c0-16.69-6.61-24.95-19.96-24.95-15.12,0-22.76,10.61-24.82,14.55v54.2h-8.88v-105.5h8.88v41.56c4.66-6.66,13.66-13.15,26.23-13.15,17.6,0,27.43,10.75,27.43,31.07Z"/>
  </g>
  <path class="cls-1" d="M974.45,322V58.52h-269.48V328h263.48v201.51H342.86v368.11h368.11v-98.63h263.48v-263.48h207.51v-213.51h-207.51Zm-269.48,569.62H348.86v-356.11h356.11v356.11Zm263.48-98.63h-257.48v-257.48h257.48v257.48Zm0-470.99h-257.48V64.52h257.48V322Zm207.51,207.51h-201.51v-201.51h201.51v201.51Z"/>
  <g id="box_1" data-x="714.71" data-y="68.26" data-d="250"></g>
  <g id="box_2" data-x="714.71" data-y="539.25" data-d="250"></g>
  <g id="box_3" data-x="351.91" data-y="537.66" data-d="350" ></g>
  <g id="box_4" data-x="977.7" data-y="331.25" data-d="195"></g>
</svg>