<?xml version="1.0" encoding="UTF-8"?>
<svg id="thick_logo" data-name="Layer 1" xmlns="http://www.w3.org/2000/svg" viewBox="0 0 1275.1 947.23">
  <defs>
    <style>
      .cls-1 {
        fill: #101a2e;
      }
    </style>
  </defs>
  <g>
    <path class="cls-1" d="M138.24,469.52v11.68l-1.33,.48c-1.79,.63-4.73,1.39-8.54,1.39-11.78,0-17.51-6.24-17.51-19.08v-91.72h12.89v91.38c0,7.08,2.6,7.66,5.74,7.66s5.1-.63,6.15-.96l2.6-.83Z"/>
    <path class="cls-1" d="M187.61,400.68c-22.51,0-39.49,17.85-39.49,41.52s16.34,41.19,38.84,41.19,39.51-17.82,39.51-41.45-16.34-41.26-38.86-41.26Zm-.38,70.38c-15.6,0-26.07-11.6-26.07-28.86s10.77-29.18,26.2-29.18,26.08,11.62,26.08,28.93-10.54,29.11-26.21,29.11Z"/>
    <path class="cls-1" d="M307.77,473.31l-1.34,1.08c-7.37,5.97-16.05,9-25.8,9-23.6,0-38.84-16.18-38.84-41.23,0-12.13,3.92-22.56,11.34-30.17,7.12-7.29,17-11.31,27.85-11.31s19.01,3.69,23.49,6.79l1.12,.78-2.84,11.96-2.41-1.66c-5.67-3.9-11.81-5.72-19.35-5.72-19.31,0-26.17,15.8-26.17,29.33,0,17.61,10.13,28.99,25.81,28.99,9.16,0,14.63-3.33,19.16-6.94l1.81-1.43,6.17,10.53Z"/>
    <path class="cls-1" d="M385.32,478.15c-1.51-2.85-3.57-6.74-3.57-15.86v-31.55c0-19.39-11.41-30.06-32.13-30.06-9.26,0-17.98,1.92-25.22,5.54l-1.42,.71,2.9,11.79,2.19-.99c7.29-3.3,13.53-4.71,20.89-4.71,13.47,0,20.02,5.61,20.02,17.16v4.72h-17.51c-20.82,0-32.76,8.8-32.76,24.14s10.79,24.35,26.84,24.35c11.58,0,19.22-5.3,24.07-10.95,.86,4.3,2.38,7.78,3.77,9.9l.78,1.19,12.34-3.14-1.19-2.24Zm-38.13-6.63c-9.76,0-15.35-4.62-15.35-12.67,0-3.15,0-12.75,19.66-12.81l17.36-.06v11.77c-1.15,2.5-7.12,13.77-21.67,13.77Z"/>
    <path class="cls-1" d="M433.76,469.52v11.68l-1.33,.48c-1.79,.63-4.73,1.39-8.54,1.39-11.79,0-17.52-6.24-17.52-19.08v-91.72h12.9v91.38c0,7.08,2.59,7.66,5.73,7.66s5.1-.63,6.15-.96l2.61-.83Z"/>
    <path class="cls-1" d="M546.03,459.61c0,14.89-11.62,23.78-31.08,23.78-10.81,0-21.17-3.27-28.43-8.97l-1.27-1,5.4-11.01,1.94,1.54c4.06,3.21,10.79,7.48,22.46,7.48s18.18-4.31,18.18-11.82-5.68-9.74-19.27-12.74c-13.2-2.91-26.08-7.1-26.08-23.27,0-13.92,11.62-22.92,29.61-22.92,12.05,0,19.69,3.21,24.39,5.62l1.39,.71-2.8,11.85-2.28-1.19c-4.76-2.49-10.94-5.03-20.7-5.03-10.39,0-16.85,4.03-16.85,10.5,0,7.03,6.79,9.01,17.97,11.43,13.88,3.03,27.42,7.45,27.42,25.04Z"/>
    <path class="cls-1" d="M599.92,400.68c-22.51,0-39.48,17.85-39.48,41.52s16.33,41.19,38.84,41.19,39.5-17.82,39.5-41.45-16.34-41.26-38.86-41.26Zm-.38,70.38c-15.59,0-26.07-11.6-26.07-28.86s10.77-29.18,26.2-29.18,26.08,11.62,26.08,28.93-10.53,29.11-26.21,29.11Z"/>
    <path class="cls-1" d="M727.58,480.44l-12.33,3.11-.76-1.3c-1.42-2.43-2.57-5.77-3.28-9.43-4.22,4.85-11.92,10.84-24.13,10.84-18.49,0-29.1-11.57-29.1-31.73v-49.24h12.89v46.02c0,15.43,5.58,22.62,17.56,22.62,14.81,0,20.97-12.3,21.97-14.56v-54.08h12.89v59.6c0,8.61,1.78,12.56,3.21,15.74l1.08,2.41Z"/>
    <path class="cls-1" d="M796.17,475l-1.18,1.11c-5.12,4.83-11.52,7.28-19.01,7.28-15.27,0-24.38-9.8-24.38-26.22v-43.14h-12.31v-11.34h12.31v-17.56l12.88-3.08v20.64h25.45v11.34h-25.45v40.92c0,11.09,4.01,16.48,12.25,16.48,5.54,0,8.95-2.4,11.56-4.75l1.78-1.61,6.1,9.93Z"/>
    <path class="cls-1" d="M875.25,433.75v48.01h-12.89v-45.8c0-15.65-5.7-22.94-17.95-22.94-14.51,0-21.38,10.53-22.82,13.06v55.68h-12.89v-109.49h12.89v38.1c6.21-6.14,14.91-9.69,24.23-9.69,18.98,0,29.43,11.74,29.43,33.07Z"/>
  </g>
  <path class="cls-1" d="M976.45,320V56.52h-273.49V330h263.49v197.51H340.85v372.11h372.11v-98.63h263.49v-263.48h207.51v-217.51h-207.51Zm-273.49,569.62H350.85v-352.11h352.11v352.11Zm263.49-98.63h-253.49v-253.48h253.49v253.48Zm-253.49-470.99V66.52h253.49v253.48h-253.49Zm461,207.51h-197.51v-197.51h197.51v197.51Z"/>
  <g id="box_1" data-x="716.31" data-y="69.86" data-d="247"></g>
  <g id="box_2" data-x="715.81" data-y="540.35" data-d="248"></g>
  <g id="box_3" data-x="354.51" data-y="540.27" data-d="345"></g>
  <g id="box_4" data-x="979.3" data-y="332.86" data-d="192"></g>
</svg>