<?xml version="1.0" encoding="UTF-8"?>
<svg id="Layer_1" data-name="Layer 1" xmlns="http://www.w3.org/2000/svg" viewBox="0 0 200 200">
  <defs>
    <style>
      .cls-1 {
        fill: #101a2e;
      }
    </style>
  </defs>
  <g class="path">
    <path class="cls-1" d="M159.29,27.68c-13.71-12.5-31.92-19.38-51.27-19.38-40.1,0-72.73,29.92-72.73,66.71v116.7H180.77V75c0-17.92-7.63-34.72-21.48-47.33ZM90.12,181.7V109.8c0-10.18,8.28-18.46,18.45-18.46,4.93,0,9.57,1.92,13.06,5.41,3.49,3.49,5.41,8.12,5.41,13.05v71.91h-36.92Zm46.92,0V109.8c0-7.6-2.97-14.75-8.34-20.12-5.38-5.38-12.52-8.34-20.13-8.34-15.69,0-28.45,12.77-28.45,28.46v71.91h-9.35V82.64c0-20.62,16.77-37.38,37.38-37.38,9.99,0,19.38,3.88,26.44,10.94s10.95,16.45,10.95,26.44v99.06h-8.5Zm33.73,0h-15.23V82.64c0-12.67-4.93-24.57-13.88-33.51-8.95-8.95-20.85-13.87-33.51-13.87-26.13,0-47.38,21.25-47.38,47.38v99.06h-15.48V75c0-31.27,28.14-56.71,62.73-56.71,16.85,0,32.67,5.95,44.54,16.77,11.74,10.69,18.21,24.87,18.21,39.94v106.7Z"/>
  </g>
</svg>