<?xml version="1.0" encoding="UTF-8"?>
<svg id="Layer_1" data-name="Layer 1" xmlns="http://www.w3.org/2000/svg" viewBox="0 0 200 200">
  <defs>
    <style>
      .cls-1 {
        fill: #101a2e;
      }
    </style>
  </defs>
  <g class="path">
    <path class="cls-1" d="M182.55,89.11c-4.01-4.78-10.12-7.53-16.77-7.53h-14.39l22.84-43.02c2.58-4.87,2.43-11.29-.39-15.98-2.15-3.57-5.52-5.62-9.26-5.62h-12.2c-5.25,0-10.05,3.27-12.83,8.74l-28.43,55.88h-20.34L62.36,25.7c-2.79-5.47-7.58-8.74-12.83-8.74h-12.21c-3.74,0-7.11,2.05-9.26,5.62-2.82,4.69-2.97,11.11-.39,15.98l22.84,43.02h-14.39c-6.69,0-12.82,2.77-16.83,7.6-3.49,4.21-4.87,9.39-3.89,14.59l12.74,67.77c1.72,9.16,10.43,15.81,20.72,15.81h104.89c10.38,0,19.11-6.72,20.76-15.98l12.03-67.77c.92-5.18-.5-10.33-3.99-14.49Zm-34.09-58.87c1.03-2.03,2.53-3.28,3.92-3.28h12.18c.11,.03,.63,.4,1.05,1.48,.7,1.74,.61,3.87-.21,5.43l-25.33,47.71h-17.73l26.12-51.34Zm-111.95,3.63c-.83-1.56-.92-3.69-.22-5.43,.43-1.08,.94-1.45,1.03-1.48h12.21c1.38,0,2.89,1.25,3.91,3.28l26.12,51.34h-17.73l-25.32-47.71ZM176.69,101.85l-12.03,67.77c-.78,4.4-5.47,7.73-10.91,7.73H48.86c-5.39,0-10.08-3.29-10.9-7.66l-12.74-67.77c-.41-2.22,.21-4.48,1.77-6.35,2.07-2.5,5.48-3.99,9.13-3.99H165.78c3.63,0,7.03,1.48,9.1,3.95,1.56,1.86,2.2,4.1,1.81,6.32Z"/>
    <path class="cls-1" d="M64.51,169.43h-4.13c-8.16,0-14.81-6.64-14.81-14.81v-42.15c0-8.16,6.64-14.81,14.81-14.81h4.13c8.16,0,14.81,6.64,14.81,14.81v42.15c0,8.16-6.64,14.81-14.81,14.81Zm-4.13-61.76c-2.65,0-4.81,2.16-4.81,4.81v42.15c0,2.65,2.16,4.81,4.81,4.81h4.13c2.65,0,4.81-2.16,4.81-4.81v-42.15c0-2.65-2.16-4.81-4.81-4.81h-4.13Z"/>
    <path class="cls-1" d="M103.96,169.43h-4.13c-8.16,0-14.81-6.64-14.81-14.81v-42.15c0-8.16,6.64-14.81,14.81-14.81h4.13c8.16,0,14.81,6.64,14.81,14.81v42.15c0,8.16-6.64,14.81-14.81,14.81Zm-4.13-61.76c-2.65,0-4.81,2.16-4.81,4.81v42.15c0,2.65,2.16,4.81,4.81,4.81h4.13c2.65,0,4.81-2.16,4.81-4.81v-42.15c0-2.65-2.16-4.81-4.81-4.81h-4.13Z"/>
    <path class="cls-1" d="M143.41,169.43h-4.13c-8.16,0-14.81-6.64-14.81-14.81v-42.15c0-8.16,6.64-14.81,14.81-14.81h4.13c8.16,0,14.81,6.64,14.81,14.81v42.15c0,8.16-6.64,14.81-14.81,14.81Zm-4.13-61.76c-2.65,0-4.81,2.16-4.81,4.81v42.15c0,2.65,2.16,4.81,4.81,4.81h4.13c2.65,0,4.81-2.16,4.81-4.81v-42.15c0-2.65-2.16-4.81-4.81-4.81h-4.13Z"/>
  </g>
</svg>