<?xml version="1.0" encoding="UTF-8"?>
<svg id="Layer_1" data-name="Layer 1" xmlns="http://www.w3.org/2000/svg" viewBox="0 0 200 200">
  <defs>
    <style>
      .cls-1 {
        fill: #101a2e;
      }
    </style>
  </defs>
  <g class="path">
    <path class="cls-1" d="M132.35,72.41l3.73,7.36c-2.74,2.4-5.13,5.22-7.11,8.4-5.24,8.43-6.88,18.4-4.62,28.06,4,17.12,19.31,28.71,36.18,28.71,2.79,0,5.63-.32,8.46-.98,19.95-4.66,32.39-24.69,27.72-44.64-4.66-19.95-24.69-32.39-44.63-27.73-2.65,.62-5.19,1.51-7.59,2.66l-21.65-42.79,16.14-4.3c2.66-.71,4.25-3.46,3.54-6.12-.71-2.67-3.46-4.26-6.12-3.55l-28.05,7.49,12.24,24.19-53.53,7.56-4.11-8.56,10.35-2.42c2.69-.62,4.36-3.31,3.73-6-.63-2.69-3.31-4.36-6-3.73l-30.66,7.16c-2.69,.63-4.36,3.32-3.73,6.01,.54,2.3,2.59,3.86,4.86,3.86,.38,0,.76-.04,1.14-.13l10.34-2.42,5.73,11.94-11.07,29.69c-5.32-1.22-10.98-1.27-16.64,.05C11.05,96.84-1.38,116.87,3.28,136.82c4,17.12,19.31,28.7,36.18,28.7,2.79,0,5.62-.32,8.45-.98,9.67-2.26,17.87-8.14,23.11-16.57,2.96-4.76,4.77-10.01,5.37-15.42l19.09-.53,36.87-59.61ZM53.47,105.1c.11,.06,.21,.12,.32,.19,3.08,1.92,5.69,4.37,7.75,7.23,2.05,2.87,3.54,6.13,4.36,9.66,.05,.2,.09,.39,.13,.59l-19.31,.43,6.75-18.1Zm9.06,37.59c-3.83,6.16-9.83,10.47-16.89,12.12-14.58,3.41-29.22-5.69-32.62-20.27-3.41-14.58,5.68-29.21,20.26-32.62,2.07-.49,4.16-.72,6.23-.72,1.54,0,3.08,.13,4.59,.4l-9.33,25.02,4.8,6.74,26.69-.59c-.57,3.48-1.82,6.84-3.73,9.92Zm13.62-20.14c-.13-.88-.31-1.76-.51-2.64-2.52-10.8-9.55-19.4-18.64-24.28l7.71-20.68,22.73,47.35-11.29,.25Zm18.54-8.25l-23.09-48.11,53.76-7.6,1.7,3.36-32.37,52.35Zm72.02,19.92c-14.58,3.41-29.21-5.68-32.62-20.26-1.65-7.07-.45-14.35,3.37-20.51,1.15-1.84,2.49-3.52,3.99-5.01l14.94,22.13c.96,1.43,2.54,2.21,4.15,2.21,.96,0,1.93-.28,2.79-.86,2.29-1.55,2.89-4.65,1.35-6.94l-14.94-22.13c1.47-.64,3.01-1.15,4.61-1.52,2.07-.48,4.16-.72,6.23-.72,5.01,0,9.93,1.39,14.28,4.1,6.16,3.82,10.47,9.82,12.12,16.89,3.4,14.58-5.69,29.21-20.27,32.62Z"/>
  </g>
</svg>