<?xml version="1.0" encoding="UTF-8"?>
<svg id="Layer_1" data-name="Layer 1" xmlns="http://www.w3.org/2000/svg" viewBox="0 0 200 200">
  <defs>
    <style>
      .cls-1 {
        fill: #101a2e;
      }
    </style>
  </defs>
  <g class="path">
    <path class="cls-1" d="M174.22,42.66c-2.31-2.86-5.73-4.41-9.43-4.23-1.42,.06-2.81,.39-4.08,.94-1.51-1.22-3.08-2.38-4.7-3.46-1.77-1.18-3.59-2.27-5.47-3.25-.03-1.3-.29-2.62-.76-3.9-1.35-3.61-4.38-6.37-8.1-7.39-32.26-8.85-70.01,7.78-91.81,40.43-21.8,32.66-22.68,73.9-2.15,100.3,2.28,2.94,5.81,4.66,9.5,4.66,.15,0,.29,0,.43,0,.55-.02,1.09-.08,1.62-.17,1.98,1.73,4.09,3.34,6.29,4.81,2.01,1.34,4.12,2.58,6.28,3.68,.11,.62,.27,1.24,.49,1.85,1.26,3.46,4.01,6.04,7.54,7.08,6.18,1.82,12.56,2.69,19.01,2.69,13.74,0,27.74-3.99,40.54-11.33,12.8-7.34,24.41-18.05,33.38-31.49,22.16-33.19,22.74-74.8,1.42-101.21Zm-116.03,24.69c16.01-23.99,41.4-38.36,65.6-38.36,5.17,0,10.29,.66,15.24,2.02,.89,.24,1.24,.88,1.38,1.25,.13,.34,.27,1.03-.21,1.75L58.84,155.89c-.48,.72-1.18,.85-1.55,.87-.37,.01-1.11-.07-1.68-.79-17.92-23.05-16.86-59.49,2.58-88.62Zm9.85,93.51L147.23,42.23c1.1,.63,2.17,1.29,3.23,1.99,.99,.67,1.96,1.37,2.91,2.1l-79.21,118.64c-1.04-.59-2.06-1.22-3.05-1.89-1.05-.7-2.08-1.44-3.07-2.21Zm96.45-22.54c-19.76,29.58-53.4,44.42-81.81,36.08-.57-.16-.83-.58-.95-.9-.1-.27-.21-.82,.17-1.38L164.03,49.1c.37-.57,.92-.67,1.21-.69h.08c.33,0,.77,.1,1.12,.53,8.97,11.11,13.42,25.4,13.42,40.54,0,16.27-5.14,33.51-15.37,48.84Z"/>
    <path class="cls-1" d="M89.61,78.45c-.48,0-.96-.02-1.43-.05-5.66-.36-10.21-2.95-12.5-7.09s-2.04-9.37,.67-14.35c2.36-4.33,6.4-8.22,11.38-10.97s10.43-4.08,15.35-3.77c5.66,.36,10.21,2.95,12.5,7.09,2.28,4.14,2.04,9.37-.67,14.35-2.36,4.33-6.4,8.22-11.38,10.97-4.5,2.48-9.39,3.82-13.92,3.82Zm12.05-26.27c-2.82,0-6.09,.92-9.09,2.58-3.29,1.81-6,4.36-7.43,7-1.04,1.92-1.3,3.65-.7,4.74,.6,1.09,2.2,1.8,4.38,1.94,2.99,.19,6.6-.74,9.88-2.55h0c3.29-1.81,6-4.36,7.43-7,1.05-1.92,1.3-3.65,.7-4.74-.6-1.09-2.2-1.8-4.38-1.94-.26-.02-.52-.03-.79-.03Z"/>
  </g>
</svg>