<?xml version="1.0" encoding="UTF-8"?>
<svg id="Layer_1" data-name="Layer 1" xmlns="http://www.w3.org/2000/svg" viewBox="0 0 200 200">
  <defs>
    <style>
      .cls-1 {
        fill: #101a2e;
      }
    </style>
  </defs>
  <g class="path">
    <path class="cls-1" d="M149.03,196.15H50.97c-10.67,0-20.79-4.11-28.47-11.58-17.21-16.72-12.47-48.44-4.78-80.22l1.03-4.24,4.34,.45c20.44,2.09,26.04,18.16,30.12,29.9,.83,2.38,1.63,4.69,2.48,6.64,10.99-8.9,9.2-22.79,5.49-43.56-5.17-28.91-11.61-64.88,36.98-89.81l2.28-1.17,2.28,1.17c48.61,24.94,41.86,60.93,36.43,89.85-3.89,20.76-5.8,34.63,5.14,43.52,.85-1.95,1.65-4.26,2.48-6.64,4.08-11.73,9.68-27.8,30.12-29.9l4.34-.45,1.03,4.24c7.69,31.79,12.44,63.5-4.78,80.22-7.69,7.47-17.8,11.58-28.47,11.58ZM26.35,111.3c-6.34,27.29-9.77,53.57,3.12,66.09,5.81,5.65,13.45,8.76,21.51,8.76h98.06c8.06,0,15.69-3.11,21.51-8.76,12.89-12.52,9.46-38.8,3.12-66.09-10.68,3.06-14.1,12.89-17.42,22.43-1.82,5.22-3.53,10.15-6.46,13.66l-2.67,3.2-3.63-2.04c-22.43-12.64-18.22-35.1-14.14-56.83,5.21-27.78,10.6-56.49-28.89-77.9-39.53,21.43-34.39,50.16-29.42,77.95,3.88,21.71,7.9,44.16-14.5,56.78l-3.63,2.04-2.67-3.2c-2.92-3.51-4.64-8.44-6.46-13.66-3.32-9.54-6.75-19.37-17.42-22.43Z"/>
    <path class="cls-1" d="M118.24,182.61h-36.42c-4.77,0-9.25-2.82-11.4-7.18-1.9-3.85-1.55-8.1,.95-11.38,10.28-13.47,11.14-31.24,11.9-46.92,.81-16.79,1.58-32.64,14.03-40.08l2.2-1.32,2.35,1.02c10.84,4.71,12.3,19.97,13.98,37.65,1.61,16.9,3.43,36.05,13.03,49.89,2.35,3.38,2.57,7.66,.58,11.45-2.18,4.17-6.58,6.86-11.2,6.86Zm-18.27-95.01c-5.53,5.71-6.09,17.09-6.71,30.03-.83,17.13-1.78,36.55-13.94,52.5-.07,.1-.23,.29,.06,.88,.39,.78,1.37,1.62,2.44,1.62h36.42c1.07,0,1.97-.78,2.34-1.5,.36-.68,.15-.98,.06-1.11-11.09-15.99-13.13-37.42-14.76-54.64-1.13-11.92-2.21-23.27-5.91-27.76Z"/>
  </g>
</svg>