<?xml version="1.0" encoding="UTF-8"?>
<svg id="Layer_1" data-name="Layer 1" xmlns="http://www.w3.org/2000/svg" viewBox="0 0 200 200">
  <defs>
    <style>
      .cls-1 {
        fill: #101a2e;
      }
    </style>
  </defs>
  <g class="path">
    <path class="cls-1" d="M158.92,14.88l-1.21-3.08-3.31-.09c-.7-.02-17.34-.38-37.3,5.4-26.79,7.76-46.65,22.99-57.44,44.05-23.58,46.04-5.55,86.44-1.58,94.29-14.25,13.1-24.61,20.23-24.89,20.42l5.61,8.28c.62-.42,12.19-8.32,27.87-22.93h.01c11.9-.84,73.74-7.14,93.18-47.25,20.79-42.88-.04-96.82-.94-99.09Zm-8.06,94.72c-13.25,27.33-51.57,36.91-72.49,40.16,1.06-1.08,2.11-2.18,3.18-3.31,10.12-10.7,21.84-24.61,32.82-41.28h.02c15.34-21.85,31.47-15.91,32.66-15.44,.02,.01,.04,.02,.05,.02l1.97-4.59,2.02-4.58c-4.69-2.06-13.08-3.22-22.44,.27,6.11-11.84,11.53-24.66,15.68-38.35l-9.57-2.9c-8.24,27.17-21.73,50.98-36.22,70.78,3.66-25.09-5.6-47.57-6.16-48.91l-9.22,3.89c.18,.41,16.83,41.11-5.65,70.6,0,.01-.01,.03-.03,.04-4.02,4.4-7.97,8.46-11.75,12.16-4.77-11.02-16.32-45.06,2.83-82.44,19.92-38.91,68.89-43.45,82.2-43.95,3.99,11.93,16.24,54.56,.1,87.83Z"/>
  </g>
</svg>