<?xml version="1.0" encoding="UTF-8"?>
<svg id="Layer_1" data-name="Layer 1" xmlns="http://www.w3.org/2000/svg" viewBox="0 0 200 200">
  <defs>
    <style>
      .cls-1 {
        fill: #101a2e;
      }
    </style>
  </defs>
  <g class="path">
    <path class="cls-1" d="M190.41,94.33C190.41,44.47,149.85,3.91,100,3.91S9.58,44.47,9.58,94.33c0,28.74,13.48,54.39,34.44,70.96l-5.08,32.13,9.88,1.56,4.32-27.34c13.67,8.31,29.72,13.11,46.86,13.11,23.44,0,44.83-8.97,60.91-23.65l9.41,38.29,9.71-2.38-10.92-44.45c13.29-15.74,21.3-36.07,21.3-58.23Zm-43.95-34c-.75-3.07-2.73-4.34-3.84-4.83-3.28-1.43-6.39,.29-8.44,1.43-16.92,9.41-21.37,28.64-12.19,52.77,8.07,21.21,27.32,35.89,35.14,41.16-14.58,14.74-34.8,23.89-57.13,23.89-16.73,0-32.27-5.13-45.15-13.9l6.4-40.5,1.63,.26c.75,.12,1.51,.18,2.26,.18,4.43,0,8.87-2.01,12.46-5.7,3.81-3.93,6.44-9.45,7.4-15.54l5.62-35.54-9.87-1.56-5.62,35.54c-.64,4.01-2.35,7.71-4.7,10.13-1.13,1.15-3.4,3.02-5.99,2.62l-1.63-.26,7.85-49.62-9.88-1.56-7.85,49.62-2.24-.36c-2.6-.41-4.18-2.89-4.89-4.33-1.49-3.04-1.98-7.08-1.34-11.09l5.62-35.54-9.88-1.56-5.62,35.54c-.96,6.09-.17,12.15,2.25,17.06,2.66,5.41,7.14,8.99,12.3,9.8l2.24,.35-5.52,34.94c-16.13-14.71-26.27-35.89-26.27-59.4C19.58,49.99,55.65,13.91,100,13.91s80.41,36.08,80.41,80.42c0,17-5.3,32.79-14.35,45.79l-19.6-79.79Zm8.45,76.35c-8.04-6.66-18.53-17.28-23.57-30.53-5.03-13.23-7.88-30.65,6.34-39.67l17.23,70.2Z"/>
  </g>
</svg>