<?xml version="1.0" encoding="UTF-8"?>
<svg id="Layer_1" data-name="Layer 1" xmlns="http://www.w3.org/2000/svg" viewBox="0 0 200 200">
  <defs>
    <style>
      .cls-1 {
        fill: #101a2e;
      }
    </style>
  </defs>
  <g class="path">
    <path class="cls-1" d="M25.35,189.89l8.32-16.17c6.1-11.82,10.99-21.29,11.8-32.24-13.14-14.13-20.35-32.46-20.35-51.85C25.12,47.6,59.32,13.41,101.35,13.41s76.22,34.19,76.22,76.22-34.19,76.23-76.22,76.23c-7.74,0-15.35-1.15-22.67-3.43l-53.34,27.46ZM101.35,23.41c-36.52,0-66.23,29.71-66.23,66.22,0,17.49,6.75,33.99,19.01,46.44l1.49,1.52-.06,2.13c-.27,9.87-3.21,18.39-7.28,27.11l29.57-15.22,2.01,.69c6.9,2.36,14.12,3.56,21.48,3.56,36.51,0,66.22-29.71,66.22-66.23S137.87,23.41,101.35,23.41Z"/>
  </g>
</svg>