<?xml version="1.0" encoding="UTF-8"?>
<svg id="Layer_1" data-name="Layer 1" xmlns="http://www.w3.org/2000/svg" viewBox="0 0 200 200">
  <defs>
    <style>
      .cls-1 {
        fill: #101a2e;
      }
    </style>
  </defs>
  <g class="path">
    <path class="cls-1" d="M32.37,154.58l22.13-57.7L2.68,63.21l61.71,3.22L80.41,6.74l16.01,59.69,61.71-3.22-51.82,33.67,22.13,57.7-48.04-38.87-48.04,38.87Zm48.04-51.74l25.35,20.52-11.68-30.45,27.34-17.77-32.57,1.7-8.45-31.5-8.45,31.5-32.57-1.7,27.35,17.77-11.68,30.45,25.35-20.52Z"/>
    <polygon class="cls-1" points="169.48 187.99 154.99 163.25 127.78 172.27 146.83 150.85 129.85 127.75 156.11 139.25 172.82 115.96 170.01 144.49 197.32 153.19 169.32 159.32 169.48 187.99"/>
  </g>  
</svg>