<?xml version="1.0" encoding="UTF-8"?>
<svg id="Layer_1" data-name="Layer 1" xmlns="http://www.w3.org/2000/svg" viewBox="0 0 200 200">
  <defs>
    <style>
      .cls-1 {
        fill: #101a2e;
      }
    </style>
  </defs>
  <g class="path">
    <path class="cls-1" d="M189.24,95.67L148,24.24,161.52-1.07l-8.82-4.71-14.15,26.49H59.32L40.63-10.61l-8.58,5.13,18.86,31.59L10.95,95.33H-3.76v10H10.95l39.11,67.74-17.95,28.34,8.45,5.35,16.97-26.81h81.02l14.15,26.49,8.82-4.71-13.52-25.31,40.85-70.75,14.87,.09,.06-10-14.54-.09ZM133.2,30.71l-6.86,12.85h-53.38l-7.67-12.85h67.91Zm-45.67,47.16h25.93l12.97,22.46-12.97,22.46h-25.93l-12.97-22.46,12.97-22.46Zm-8.6-24.31h42.07l-7.65,14.31h-25.88l-8.54-14.31Zm-13.03,41.77h-16.62l21.12-36.57,8.44,14.15-12.94,22.42Zm0,10l12.89,22.34-9.1,14.38-21.21-36.72h17.42Zm21.49,27.46h25.96l8.38,15.69h-44.27l9.93-15.69Zm47.69-27.44l17.96,.11-22.31,38.64-8.66-16.21,13.01-22.54Zm.02-10l-13.03-22.58,8.28-15.49,22.03,38.17-17.28-.1ZM56.78,35.94l7.75,12.98-26.8,46.41h-15.23L56.78,35.94Zm-.69,127.59L22.5,105.33h14.44l26.71,46.27-7.56,11.93Zm7.77,6.42l7.27-11.47h55.95l6.12,11.47H63.86Zm78.59-3.91l-6.17-11.56,28.27-48.96,12.79,.08-34.89,60.44Zm21.52-70.52l-28.07-48.62,6.55-12.27,35.2,60.97-13.68-.08Z"/>
  </g>
</svg>